<svg xmlns="http://www.w3.org/2000/svg" xml:space="preserve" width="58" height="58">
  <linearGradient id="a" x1="17.578" x2="55.936" y1="80.114" y2="-38.006" gradientTransform="matrix(1 0 0 -1 0 58)"
    gradientUnits="userSpaceOnUse">
    <stop offset=".355" style="stop-color:#20db93" />
    <stop offset=".725" style="stop-color:#2893f0" />
  </linearGradient>
  <linearGradient id="b" x1="-6.832" x2="29.257" y1="81.261" y2="-29.874" gradientTransform="matrix(1 0 0 -1 0 58)"
    gradientUnits="userSpaceOnUse">
    <stop offset=".355" style="stop-color:#20db93" />
    <stop offset=".725" style="stop-color:#2893f0" />
  </linearGradient>
  <linearGradient id="c" x1="28.922" x2="53.883" y1="64.223" y2="-12.641" gradientTransform="matrix(1 0 0 -1 0 58)"
    gradientUnits="userSpaceOnUse">
    <stop offset=".355" style="stop-color:#20db93" />
    <stop offset=".725" style="stop-color:#2893f0" />
  </linearGradient>
  <linearGradient id="d" x1="14.727" x2="49.954" y1="85.55" y2="-22.929" gradientTransform="matrix(1 0 0 -1 0 58)"
    gradientUnits="userSpaceOnUse">
    <stop offset=".355" style="stop-color:#20db93" />
    <stop offset=".725" style="stop-color:#2893f0" />
  </linearGradient>
  <path d="m27.8 6.8 10.5 6 5.9-3.4L27.8 0 11.4 9.5l5.9 3.4z" style="fill:url(#a)" />
  <path d="m11.4 23.1-5.9-3.4v19l16.4 9.5v-6.8l-10.5-6.1z" style="fill:url(#b)" />
  <path d="m44.3 35.3-10.5 6.1v6.8l16.4-9.5v-19l-5.9 3.4z" style="fill:url(#c)" />
  <path
    d="M55.3 10.8c-.1-.2-.2-.5-.3-.7s-.3-.4-.4-.6c-.6-.7-1.2-1.2-1.9-1.5-1.6-.8-3.6-.8-5.2.1-.9.5-1.6 1.2-2 2.1-.4.7-.6 1.6-.7 2.4l-3.5 2-7.5 4.3-3 1.7-3 1.7-3-1.7-3-1.7-7.5-4.3-3.5-2c0-.8-.3-1.7-.7-2.4-.5-.8-1.1-1.6-2-2.1-1.6-1-3.5-.9-5.1-.1-.7.3-1.4.8-1.9 1.5-.1.2-.2.4-.4.6-.1.2-.2.4-.3.7-.3.7-.4 1.5-.4 2.3.1 1.8 1.1 3.5 2.7 4.5.9.5 1.8.7 2.8.7q1.35 0 2.4-.6l3.5 2L19 24l2.9 1.7 3 1.7V47c-.7.5-1.3 1.1-1.8 1.9s-.7 1.7-.7 2.7c0 1.9 1 3.6 2.5 4.6.7.4 1.4.7 2.2.8.2 0 .5.1.7.1s.5 0 .7-.1c.8-.1 1.6-.4 2.2-.8 1.5-1 2.5-2.7 2.5-4.6 0-1-.3-1.9-.7-2.7s-1-1.4-1.8-1.9V27.4l3-1.7 3-1.7 7.6-4.4 3.5-2q1.2.6 2.4.6c.9 0 1.9-.2 2.8-.7 1.7-1 2.6-2.7 2.7-4.5 0-.7-.1-1.5-.4-2.2"
    style="fill:url(#d)" />
</svg>
