<svg xmlns="http://www.w3.org/2000/svg" viewBox="-107.085 -44.804 333 405.001">
  <circle cx="63.915" cy="117.804" r="45" fill="#2552E5" />
  <path fill="#2552E5"
    d="M25.561 360.166c.538-.886.874-1.431 1.277-1.977 36.157-54.247 72.515-108.426 108.47-162.878 11.089-16.833 20.229-34.824 25.135-54.656 11.492-46.342-8.536-91.185-50.673-112.857-27.622-14.175-56.587-17.514-85.956-6.678-36.627 13.561-59.544 40.209-66.802 79.19-10.081 54.316 24.329 105.496 77.555 116.945.806.205 1.613.341 2.688.614-.336.613-.538 1.09-.806 1.499a12985 12985 0 0 0-31.99 51.249c-.605 1.022-1.143 1.226-2.285.886-53.495-17.515-92.878-60.79-105.176-115.446-3.629-16.152-4.906-32.576-3.562-49.068 2.957-37.482 17.137-70.127 42.272-97.727 24.194-26.579 53.899-43.616 88.98-50.772 26.815-5.452 53.361-3.953 79.705 3.135 28.831 7.769 54.437 21.671 76.009 42.798 23.119 22.626 37.636 49.954 43.214 82.121 2.016 11.654 2.822 23.444 1.949 35.302-.941 13.357-4.369 26.101-9.14 38.572-6.385 16.697-14.651 32.372-23.858 47.569-26.815 43.957-53.697 87.913-80.512 131.938-1.546 2.522-2.957 5.111-4.705 7.429-6.25 8.518-14.65 12.744-25.135 12.812-9.879.068-19.691 0-29.57 0H25.561" />
</svg>
